#!OML:ASF E:\Mandelcareful walks\Project 1\Capture day 1\Session 1\Subject1.ASF
:FULLY-SPECIFIED
:DEGREES
921
root 21.2083 15.256 -1.07773 661.722 86.4537 651.251
lowerback 27.9954 2.51696 2.25849
upperback 9.81336 4.60249 -1.02965
thorax -4.17982 2.65775 -3.84504
lowerneck -23.03 11.7631 5.67712
upperneck 21.9441 19.8575 -16.383
head 13.7187 7.37174 -3.27586
rclavicle 3.18055e-014 8.01102e-014
rhumerus -15.11 8.08497 -82.9649
rradius 47.2373
rwrist -22.4796
rhand -14.3311 -27.7142
rfingers 7.12502
rthumb 11.8099 -57.3612
lclavicle 3.18055e-014 8.01102e-014
lhumerus -19.5275 -14.5098 82.1049
lradius 47.2229
lwrist 24.5114
lhand -24.813 -11.1366
lfingers 7.12502
lthumb 1.69219 18.8364
rfemur -15.7496 -11.493 8.75105
rtibia 50.5053
rfoot -26.7288 8.57157
rtoes -6.85255
lfemur -51.9546 15.2095 -19.0607
ltibia 66.1847
lfoot -20.6008 0.463523
ltoes 10.2106
922
root 21.2867 15.2426 -1.14193 664.61 86.0541 654.041
lowerback 27.8474 2.67072 2.10336
upperback 9.80204 4.74685 -1.03879
thorax -4.12323 2.72346 -3.79877
lowerneck -22.7832 11.6864 5.96211
upperneck 21.5028 19.6576 -16.7314
head 13.5441 7.31132 -3.50067
rclavicle -6.80837e-015 -2.05245e-014
rhumerus -14.7497 8.85953 -83.3139
rradius 47.7375
rwrist -22.5879
rhand -15.1817 -26.8911
rfingers 7.12502
rthumb 10.9895 -56.5835
lclavicle -6.80837e-015 -2.05245e-014
lhumerus -19.5207 -14.2594 81.9473
lradius 47.0158
lwrist 24.7965
lhand -24.9686 -11.1393
lfingers 7.12502
lthumb 1.54188 18.8349
rfemur -15.4346 -10.9595 8.8059
rtibia 49.9705
rfoot -26.7732 8.25838
rtoes -7.26181
lfemur -51.9311 15.3558 -18.9263
ltibia 66.6778
lfoot -21.1014 0.401164
ltoes 11.8175
923
root 21.3634 15.2268 -1.20326 664.565 85.7585 653.87
lowerback 27.569 2.77949 2.05106
upperback 9.87769 4.87107 -1.00223
thorax -3.90634 2.78916 -3.73988
lowerneck -23.3346 11.5953 5.66223
upperneck 21.8592 19.6066 -16.4454
head 13.7196 7.23965 -3.34214
rclavicle -3.80673e-014 3.49364e-014
rhumerus -14.2331 9.49879 -83.4947
rradius 48.0829
rwrist -22.8207
rhand -15.2228 -26.8334
rfingers 7.12502
rthumb 10.9498 -56.5279
lclavicle -3.80673e-014 3.49364e-014
lhumerus -19.3892 -14.2484 81.8885
lradius 46.6982
lwrist 25.1017
lhand -25.2508 -11.4216
lfingers 7.12502
lthumb 1.26931 18.5544
rfemur -15.0056 -10.6226 8.85131
rtibia 49.3836
rfoot -26.8598 7.96418
rtoes -7.96602
lfemur -51.9165 15.3475 -18.8187
ltibia 67.1607
lfoot -21.6433 0.295763
ltoes 13.0817
924
root 21.4416 15.2129 -1.26811 664.34 85.4586 653.409
lowerback 27.2538 2.8488 2.05012
upperback 9.85983 4.94546 -0.99555
thorax -3.77278 2.82421 -3.7301
lowerneck -23.4381 11.4832 5.63601
upperneck 21.7881 19.418 -16.4173
head 13.6779 7.15644 -3.36618
rclavicle -2.24378e-014 4.07509e-014
rhumerus -13.9717 10.0288 -83.7736
rradius 48.4919
rwrist -22.9007
rhand -14.9374 -27.1098
rfingers 7.12502
rthumb 11.2251 -56.7895
lclavicle -2.24378e-014 4.07509e-014
lhumerus -19.4641 -14.2226 81.8323
lradius 46.4675
lwrist 25.2704
lhand -25.5181 -11.7154
lfingers 7.12502
lthumb 1.0112 18.262
rfemur -14.6226 -10.3822 8.89158
rtibia 48.762
rfoot -26.9327 7.83326
rtoes -8.6021
lfemur -52.0862 15.3274 -18.7569
ltibia 67.6336
lfoot -22.1923 0.347399
ltoes 13.3281
925
root 21.5291 15.202 -1.33878 666.042 85.0338 655.144
lowerback 27.2576 2.94787 2.03106
upperback 9.82566 5.05942 -1.00498
thorax -3.80462 2.87539 -3.76407
lowerneck -23.2313 11.3564 5.80675
upperneck 21.4638 19.1221 -16.5152
head 13.4941 7.06272 -3.50073
rclavicle 1.07468e-015 -3.30076e-014
rhumerus -13.9288 10.5209 -84.0884
rradius 49.0488
rwrist -22.7842
rhand -15.0378 -26.8647
rfingers 7.12502
rthumb 11.1283 -56.5497
lclavicle 1.07468e-015 -3.30076e-014
lhumerus -19.6374 -14.0391 81.7775
lradius 46.1146
lwrist 25.1192
lhand -25.4002 -11.6264
lfingers 7.12502
lthumb 1.12503 18.3503
rfemur -13.956 -9.91745 8.86069
rtibia 48.0739
rfoot -26.9347 7.85543
rtoes -9.23677
lfemur -51.8606 15.4826 -18.597
ltibia 68.0625
lfoot -22.8967 0.401641
ltoes 13.44
926
root 21.6008 15.1846 -1.40363 665.014 84.7752 654.028
lowerback 27.1996 2.9629 2.05208
upperback 9.81395 5.08166 -0.974795
thorax -3.78986 2.88457 -3.74545
lowerneck -24.0223 11.1032 5.13101
upperneck 21.9651 18.8075 -15.697
head 13.624 6.88515 -3.13663
rclavicle 1.9866e-014 2.34069e-014
rhumerus -13.7288 11.0029 -84.2499
rradius 49.5058
rwrist -22.9443
rhand -14.7777 -27.2164
rfingers 7.12502
rthumb 11.3792 -56.8876
lclavicle 1.9866e-014 2.34069e-014
lhumerus -19.5713 -13.918 81.7492
lradius 45.596
lwrist 24.8812
lhand -25.1284 -11.6663
lfingers 7.12502
lthumb 1.3876 18.3089
rfemur -13.4251 -9.60434 8.87926
rtibia 47.4154
rfoot -26.8379 7.76651
rtoes -9.41195
lfemur -51.8319 15.3605 -18.4812
ltibia 68.4788
lfoot -23.5898 0.390551
ltoes 13.6604
927
root 21.675 15.167 -1.46551 663.566 84.5821 652.422
lowerback 26.9193 2.93074 1.97626
upperback 9.87879 5.02186 -0.932151
thorax -3.60052 2.85897 -3.61365
lowerneck -24.3689 10.7545 4.73656
upperneck 21.9848 18.2316 -15.1341
head 13.5057 6.64619 -2.98137
rclavicle -1.77415e-014 3.13086e-015
rhumerus -13.1342 11.6205 -84.2602
rradius 49.7501
rwrist -23.1011
rhand -14.6233 -27.514
rfingers 7.12502
rthumb 11.5281 -57.1769
lclavicle -1.77415e-014 3.13086e-015
lhumerus -19.4178 -13.6392 81.7598
lradius 45.095
lwrist 24.7932
lhand -25.2598 -11.8931
lfingers 7.12502
lthumb 1.26064 18.0829
rfemur -12.9234 -9.3569 8.88717
rtibia 46.7643
rfoot -26.7287 7.59152
rtoes -9.47734
lfemur -51.8771 15.2088 -18.4228
ltibia 68.8724
lfoot -24.2725 0.347448
ltoes 13.4975
928
root 21.7535 15.1507 -1.52687 662.291 84.3566 651.114
lowerback 26.7797 2.97761 1.96325
upperback 9.78838 5.06263 -0.984813
thorax -3.62754 2.87329 -3.66921
lowerneck -24.9543 10.2425 4.2122
upperneck 22.853 17.3792 -13.7697
head 13.6383 6.30974 -2.56543
rclavicle -2.10712e-014 7.7526e-015
rhumerus -12.8009 11.6812 -84.4106
rradius 50.0602
rwrist -22.6127
rhand -14.0849 -28.2239
rfingers 7.12502
rthumb 12.0472 -57.8571
lclavicle -2.10712e-014 7.7526e-015
lhumerus -19.6394 -13.6402 81.7391
lradius 44.7649
lwrist 24.7215
lhand -25.3891 -11.1878
lfingers 7.12502
lthumb 1.13579 18.7889
rfemur -12.3125 -9.08995 8.90904
rtibia 46.2347
rfoot -26.7334 7.32714
rtoes -10.4349
lfemur -51.7542 15.146 -18.2977
ltibia 69.256
lfoot -24.8736 0.153218
ltoes 13.558
929
root 21.8364 15.1354 -1.58887 661.557 84.0861 650.529
lowerback 26.8649 3.01861 1.87292
upperback 9.77521 5.09421 -0.978869
thorax -3.68868 2.88514 -3.62794
lowerneck -25.0749 9.75335 4.14194
upperneck 22.9271 16.4869 -13.176
head 13.509 5.97838 -2.52369
rclavicle -6.11263e-014 9.93923e-016
rhumerus -12.7852 12.1921 -84.6312
rradius 50.1553
rwrist -23.4781
rhand -15.246 -26.9444
rfingers 7.12502
rthumb 10.9275 -56.6401
lclavicle -6.11263e-014 9.93923e-016
lhumerus -19.8319 -13.3852 81.7782
lradius 44.4639
lwrist 24.412
lhand -25.1043 -10.3365
lfingers 7.12502
lthumb 1.41088 19.6386
rfemur -11.5338 -8.71436 8.91947
rtibia 45.6897
rfoot -26.6653 7.05665
rtoes -11.7424
lfemur -51.334 15.1994 -18.1087
ltibia 69.5832
lfoot -25.4492 -0.194632
ltoes 14.089
